<svg width="162" height="52" viewBox="0 0 162 52" fill="none" xmlns="http://www.w3.org/2000/svg">
<path d="M20.8731 23.9261V18.4153H39.6011C39.8091 19.5298 39.9102 20.6611 39.9033 21.7943C39.9033 25.9259 38.7555 31.0426 35.0563 34.6826C31.4602 38.3723 26.8658 40.3406 20.773 40.3406C9.48776 40.3406 0 31.2884 0 20.1703C0 9.05227 9.48777 0 20.7751 0C27.0195 0 31.4623 2.41109 34.8088 5.55953L30.8631 9.44531C28.4633 7.23227 25.2199 5.50977 20.7751 5.50977C12.5352 5.50977 6.0928 12.0524 6.0928 20.1703C6.0928 28.2882 12.5352 34.8359 20.7751 34.8359C26.1192 34.8359 29.1656 32.7204 31.1127 30.8019C32.6998 29.2388 33.7455 26.9963 34.1508 23.9312L20.8731 23.9261Z" fill="#4285F4"/>
<path d="M68.4392 27.3533C68.4392 34.8364 62.495 40.3411 55.2059 40.3411C47.9168 40.3411 41.9725 34.8364 41.9725 27.3533C41.9725 19.8265 47.9158 14.3654 55.2079 14.3654C62.5001 14.3654 68.4413 19.8265 68.4413 27.3533M62.6486 27.3533C62.6486 22.6814 59.2031 19.4822 55.2079 19.4822C51.2128 19.4822 47.7662 22.6794 47.7662 27.3533C47.7662 31.9774 51.2117 35.2244 55.2079 35.2244C59.2041 35.2244 62.6486 31.9744 62.6486 27.3533Z" fill="#EA4335"/>
<path d="M97.3115 27.353C97.3115 34.8362 91.3724 40.3409 84.0782 40.3409C76.7839 40.3409 70.8438 34.8362 70.8438 27.353C70.8438 19.8263 76.786 14.3652 84.0782 14.3652C91.3703 14.3652 97.3115 19.8263 97.3115 27.353ZM91.5188 27.353C91.5188 22.6812 88.0733 19.482 84.0782 19.482C80.083 19.482 76.6364 22.6791 76.6364 27.353C76.6364 31.9772 80.0819 35.2241 84.0782 35.2241C88.0744 35.2241 91.5188 31.9741 91.5188 27.353Z" fill="#FBBC04"/>
<path d="M124.984 15.1526V38.4713C124.984 48.0649 119.241 52.0005 112.449 52.0005C106.055 52.0005 102.21 47.7694 100.763 44.3264L105.81 42.2596C106.708 44.3751 108.903 46.8837 112.452 46.8837C116.797 46.8837 119.494 44.2269 119.494 39.2584V37.3897H119.294C117.995 38.9639 115.499 40.3411 112.352 40.3411C105.759 40.3411 99.7169 34.683 99.7169 27.403C99.7169 20.0722 105.759 14.3654 112.352 14.3654C115.499 14.3654 117.995 15.7426 119.294 17.2681H119.494V15.1526H124.984ZM119.89 27.403C119.89 22.8276 116.796 19.4812 112.848 19.4812C108.853 19.4812 105.506 22.8266 105.506 27.403C105.506 31.9287 108.853 35.2233 112.848 35.2233C116.794 35.2233 119.89 31.9276 119.89 27.403Z" fill="#4285F4"/>
<path d="M134.797 1.50586H129.004V39.5542H134.797V1.50586Z" fill="#34A853"/>
<path d="M157.166 31.6329L161.66 34.5843C160.216 36.6998 156.716 40.3409 150.673 40.3409C143.182 40.3409 137.588 34.6341 137.588 27.353C137.588 19.6343 143.232 14.3652 150.023 14.3652C156.866 14.3652 160.211 19.7277 161.31 22.6304L161.91 24.1061L144.275 31.2886C145.624 33.8957 147.721 35.2241 150.669 35.2241C153.616 35.2241 155.663 33.8023 157.166 31.6329ZM143.331 26.961L155.118 22.1409C154.468 20.5159 152.521 19.3865 150.223 19.3865C147.277 19.3865 143.182 21.9448 143.331 26.963" fill="#EA4335"/>
</svg>
